<?xml version="1.0" encoding="UTF-8"?>
<svg id="Layer_3" data-name="Layer 3" xmlns="http://www.w3.org/2000/svg" viewBox="0 0 270 270">
  <circle cx="135" cy="135" r="135" style="fill: #86a3b5;"/>
  <g>
    <path d="m149.01,123.79c-.51,1.52-1.42,2.6-2.81,3.85-1.23,1.11-2.65,2-4.15,2.67-3.14,1.4-6.67,1.87-10.08,1.49-4.91-.54-9.39-2.9-12.46-6.8-1.01-1.28-.93-2.89-1.08-4.44l-.45-4.74-.74-7.81-.03-.35s34.07-.19,34.07-.19c-.63,4.87-1.26,9.75-1.89,14.62-.08.63-.2,1.18-.37,1.69Z" style="fill: #ffe8d8; stroke: #d1b18b; stroke-miterlimit: 10; stroke-width: .25px;"/>
    <path d="m112.77,81.87l3.08,24.64s2.31,9.49,19.25,9.49c15.01,0,18.09-10.26,18.09-10.26l2.69-24.25-43.12.38Z" style="fill: #ffe8d8; stroke: #d1b18b; stroke-miterlimit: 10; stroke-width: .25px;"/>
    <g>
      <g>
        <path d="m155.89,80.33v1.15c-4.23,12.32-35.8,13.47-43.12.38v-1.15c7.31,13.09,38.88,11.93,43.12-.38Z" style="fill: #ffe8d8; stroke: #d1b18b; stroke-miterlimit: 10; stroke-width: .25px;"/>
        <path d="m156.28,72.63l-.06,1.15-.33,6.54c-4.23,12.32-35.8,13.47-43.12.38l-.33-6.54-.06-1.15,43.89-.38Z" style="fill: #ffe8d8; stroke: #d1b18b; stroke-miterlimit: 10; stroke-width: .25px;"/>
      </g>
      <path d="m158.59,63.4c0,.26-.02.52-.05.77-.8,6.23-11.33,11.16-24.2,11.16s-23.4-4.93-24.2-11.16c-.03-.25-.05-.51-.05-.77,0-6.59,10.86-11.93,24.25-11.93s24.25,5.34,24.25,11.93Z" style="fill: #ffe8d8; stroke: #d1b18b; stroke-miterlimit: 10; stroke-width: .25px;"/>
    </g>
    <g>
      <path d="m155.89,58.39c0,.22-.02.45-.05.67-.74,5.22-10.09,9.34-21.51,9.34s-21.09-4.27-21.54-9.61c-.02-.13-.02-.27-.02-.4,0-5.53,9.65-10.01,21.56-10.01s21.56,4.48,21.56,10.01Z" style="fill: #ffe8d8; stroke: #d1b18b; stroke-miterlimit: 10; stroke-width: .25px;"/>
      <g>
        <path d="m150.67,61.1c.34-.46.56-1,.58-1.63.11-3.31-4.92-4.36-7.32-4.84-3.73-.74-7.55-.98-11.35-.81-3.79.16-8.57.4-11.75,2.78-.35.26-.68.57-.9.95-.24.42-.27.87-.16,1.3-.14-.19-.27-.39-.39-.6-.46-.8-.63-1.79-.22-2.67.23-.5.58-.89.95-1.23,3.33-3.07,8.35-3.38,12.33-3.58,3.99-.21,8,.09,11.91,1.05,2.51.61,7.79,1.97,7.68,6.25-.04,1.31-.59,2.29-1.37,3.05Z" style="fill: #ffe8d8; stroke: #d1b18b; stroke-miterlimit: 10; stroke-width: .25px;"/>
        <path d="m151.25,59.47c-.02.64-.23,1.17-.58,1.63-1.03,1.01-2.46,1.63-3.56,2.12-.28.12-.55.24-.84.36-2.97,1.05-6.13,1.7-9.24,2.11-.17.02-.35.04-.52-.02-.6-.22-.77-.96-1.25-1.32,0,0,0,0,0,0,0,0,0,0-.01,0-.04-.04-.07-.06-.11-.09-.47-.35-1.06-.38-1.59-.39-2.62-.07-5.29-.25-7.82-1.13-2.14-.74-4.44-1.74-5.95-3.87-.11-.43-.08-.87.16-1.3.22-.38.55-.69.9-.95,3.18-2.37,7.96-2.62,11.75-2.78,3.8-.16,7.62.08,11.35.81,2.39.48,7.42,1.52,7.32,4.84Z" style="fill: #ffe8d8; stroke: #d1b18b; stroke-miterlimit: 10; stroke-width: .25px;"/>
      </g>
      <path d="m118.67,63.77l4.55,1.85c.32.13.68.04.9-.23h0c.33-.41.17-1.02-.31-1.22l-4.55-1.85c-.32-.13-.68-.04-.9.23h0c-.33.41-.17,1.02.31,1.22Z" style="fill: #ffe8d8; stroke: #d1b18b; stroke-miterlimit: 10; stroke-width: .25px;"/>
      <path d="m156.14,62.99c-.02.77-.16,1.35-.42,1.85-.31.59-.8,1.07-1.49,1.6-.95.74-2,1.37-3.08,1.91-2.21,1.1-4.58,1.83-6.97,2.38-4.69,1.08-9.59,1.39-14.39.97-3.2-.28-6.39-.88-9.42-1.98-1.52-.56-3-1.24-4.4-2.07-1.91-1.15-3.96-2.3-4.02-4.8-.02-1.09.23-2.19.55-3.23.06-.2.15-.53.28-.84.45,5.34,9.92,9.61,21.54,9.61s20.77-4.12,21.51-9.34c.31,1.28.33,2.6.3,3.93Z" style="fill: #ffe8d8; stroke: #d1b18b; stroke-miterlimit: 10; stroke-width: .25px;"/>
    </g>
    <path d="m158.57,64.55c.02.31.01.62.01.93v4.46c-7.7,12.7-42.73,11.93-48.51,0v-4.5c0-.42-.02-.84.05-1.26.03.31.11.62.19.91s.2.6.33.89.29.59.46.87.38.57.59.84c.22.28.46.55.71.81.26.27.54.53.83.78.3.26.61.51.94.74.34.25.69.48,1.04.71.37.23.75.46,1.14.67s.82.43,1.24.62.88.4,1.33.58.94.36,1.41.53.99.33,1.49.48,1.04.3,1.56.43,1.08.26,1.63.37,1.12.22,1.69.31,1.16.18,1.75.25,1.2.14,1.8.19,1.23.09,1.84.12,1.26.04,1.89.05c.12,0,.24,0,.36,0,12.87,0,23.4-4.93,24.2-11.16.02.13.03.26.04.39Z" style="fill: #ffe8d8; stroke: #d1b18b; stroke-miterlimit: 10; stroke-width: .25px;"/>
    <g>
      <path d="m109.85,83.37c2.54,11.45,3.9,16.57,6.52,25.99,0,0,3.51,8.75,18.68,8.75,13.45,0,17.77-9.57,17.77-9.57,2.46-9.38,3.72-14.43,6.11-25.56-11.49,15.7-37.62,17.27-49.08.39Z" style="fill: none;"/>
      <g>
        <path d="m121.38,104.69c-.45-.02-.96-.13-1.51-.33-.93-.34-1.75-.83-2.49-1.49s-1.32-1.41-1.78-2.22c-.46-.82-.75-1.62-.87-2.37-.14-.82-.08-1.43.17-1.82.25-.39.68-.52,1.29-.43.61.09,1.37.41,2.27.9.55.3,1.09.61,1.59.95.5.33.96.66,1.36.97-.19.3-.28.46-.46.76-.77-.65-1.53-1.18-2.25-1.55-.55-.28-1.04-.45-1.46-.48-.42-.03-.73.08-.93.34-.2.26-.25.65-.16,1.16.09.54.29,1.09.61,1.64.31.55.72,1.05,1.22,1.49.5.44,1.05.78,1.66,1.02.44.17.83.27,1.17.29.34.03.63,0,.85-.07.31.47.47.71.78,1.17-.25.06-.61.08-1.06.06Z" style="fill: #f0b439;"/>
        <path d="m123.75,102.63c.23-.23.58-.36,1.04-.4.47-.04,1.02.02,1.66.15s1.21.33,1.73.58c.51.25.91.52,1.2.84.29.32.44.65.47,1,.02.35-.09.65-.33.91-.24.25-.59.43-1.05.54-.46.1-1,.11-1.61,0-.6-.1-1.14-.29-1.63-.55-.49-.26-.89-.58-1.2-.96-.31-.38-.49-.78-.55-1.19-.05-.38.03-.68.26-.91Zm1.81,2.26c.34.29.73.48,1.19.56.48.09.86.04,1.15-.12.29-.16.42-.41.39-.73-.03-.32-.21-.62-.55-.89-.34-.27-.75-.46-1.25-.56-.47-.1-.86-.08-1.14.07-.29.15-.41.39-.37.72.04.33.23.65.57.94Z" style="fill: #f0b439;"/>
        <path d="m137.83,103.21c.74-.07,1.12-.11,1.86-.22-.03.33-.04.49-.06.82-.73.1-1.1.14-1.83.21-.05,1.06-.08,1.59-.14,2.65-.6.04-.9.06-1.5.09.03-1.05.04-1.58.07-2.63-1.09.05-1.63.06-2.72.04.01,1.05.02,1.57.03,2.62-.6-.01-.9-.02-1.5-.05-.04-1.05-.06-1.58-.1-2.64-.4-.03-.6-.04-1.01-.08-.02-.32-.02-.48-.04-.81.41.04.61.05,1.02.08-.02-.54-.03-.81-.05-1.35-.02-.48.19-.84.62-1.09.43-.25,1.07-.35,1.9-.35.25,0,.51.02.8.05.29.03.53.08.73.15-.28.27-.42.41-.7.68-.16-.09-.38-.14-.66-.14-.72,0-1.08.26-1.07.8,0,.53.01.79.02,1.32,1.1.03,1.65.02,2.75-.04.02-.54.02-.81.04-1.34.01-.48.24-.87.69-1.17.45-.3,1.09-.5,1.91-.61.25-.03.51-.05.79-.05.28,0,.52.01.71.06-.3.32-.44.47-.73.78-.16-.07-.37-.09-.64-.06-.72.1-1.09.4-1.12.94-.03.53-.04.8-.07,1.33Z" style="fill: #f0b439;"/>
        <path d="m145.07,104.44c.22.23.33.34.55.57-.31.21-.64.39-.98.55-.35.16-.67.27-.99.34-.63.14-1.17.16-1.63.08-.45-.08-.79-.25-1.02-.49-.23-.25-.33-.55-.29-.92.03-.35.21-.69.53-1.03.32-.35.75-.66,1.27-.94.52-.29,1.08-.51,1.68-.68.78-.22,1.4-.27,1.86-.13.46.14.73.46.8.97-1.76.99-2.65,1.41-4.43,2.13.13.12.32.19.56.22s.5,0,.8-.06c.41-.1.84-.29,1.28-.61Zm-2.31-1.12c-.33.28-.51.58-.55.92,0,.06,0,.11,0,.14,1.23-.51,1.84-.79,3.06-1.42-.09-.15-.24-.25-.44-.31-.21-.05-.49-.03-.85.06-.48.13-.88.33-1.21.61Z" style="fill: #f0b439;"/>
        <path d="m151.75,101.92c.18.23.27.35.45.59-.29.28-.6.54-.93.77-.32.23-.63.4-.92.52-.59.24-1.09.34-1.5.31-.41-.03-.71-.16-.9-.41-.19-.24-.25-.57-.18-.99.06-.39.26-.8.58-1.25.33-.44.74-.87,1.24-1.29.5-.42,1.02-.77,1.56-1.06.71-.38,1.26-.55,1.65-.46.39.09.6.43.64,1.03-1.6,1.4-2.44,2.02-4.13,3.12.11.11.28.17.49.17.21,0,.46-.06.73-.18.38-.17.78-.46,1.2-.88Zm-1.99-.94c-.32.37-.51.75-.58,1.13-.01.07-.02.13-.01.16,1.17-.77,1.74-1.19,2.87-2.11-.07-.16-.19-.26-.37-.29-.18-.03-.43.04-.76.21-.44.22-.82.52-1.14.89Z" style="fill: #f0b439;"/>
      </g>
    </g>
  </g>
  <text transform="translate(64.83 188.24)" style="fill: #ffe8d8; font-family: Oranienbaum-Regular, Oranienbaum; font-size: 65.83px;"><tspan x="0" y="0">MOJİ</tspan></text>
  <text transform="translate(91.26 221.53)" style="fill: #ffe8d8; font-family: JosefinSans-Regular, &apos;Josefin Sans&apos;; font-size: 11.55px;"><tspan x="0" y="0">COFFEE SHOP</tspan></text>
</svg>